<svg xmlns="http://www.w3.org/2000/svg" viewBox="0 0 122.88 91.26" style="enable-background:new 0 0 122.88 91.26" xml:space="preserve"><path d="M14.85 45.46h6.65l2.39 12.65 3.5-12.65h6.6l3.53 12.67 2.41-12.67h6.62l-5 22.68h-6.87L30.7 53.86l-3.95 14.28h-6.86l-5.04-22.68zM8.32 0h106.24c4.58 0 8.32 3.74 8.32 8.32v74.62c0 4.57-3.74 8.32-8.32 8.32H8.32C3.74 91.26 0 87.51 0 82.94V8.32C0 3.74 3.74 0 8.32 0zm109.65 23.29H5.29v60.46c0 .64.25 1.2.67 1.63.42.42.99.67 1.63.67h108.04c.64 0 1.2-.25 1.63-.67.43-.43.67-.99.67-1.63V23.29h.04zM106.64 9.35a4.11 4.11 0 1 1 0 8.22 4.11 4.11 0 0 1 0-8.22zm-27.84 0a4.11 4.11 0 1 1 0 8.22 4.11 4.11 0 0 1 0-8.22zm13.92 0a4.11 4.11 0 1 1 0 8.22 4.11 4.11 0 0 1 0-8.22zM78.3 45.46h6.65l2.39 12.65 3.5-12.65h6.6l3.53 12.67 2.41-12.67H110l-5 22.68h-6.87l-3.98-14.28-3.95 14.28h-6.86L78.3 45.46zm-31.72 0h6.65l2.39 12.65 3.5-12.65h6.6l3.53 12.67 2.41-12.67h6.62l-5 22.68h-6.87l-3.98-14.28-3.95 14.28h-6.86l-5.04-22.68z" style="fill-rule:evenodd;clip-rule:evenodd"/></svg>